<svg width="24" height="24" viewBox="0 0 24 24" fill="none" xmlns="http://www.w3.org/2000/svg">
<path d="M12 0.75C5.78672 0.75 0.75 5.78672 0.75 12C0.75 18.2133 5.78672 23.25 12 23.25C18.2133 23.25 23.25 18.2133 23.25 12C23.25 5.78672 18.2133 0.75 12 0.75ZM12 3.5625C16.6598 3.5625 20.4375 7.34016 20.4375 12C20.4375 16.6598 16.6598 20.4375 12 20.4375C7.34016 20.4375 3.5625 16.6598 3.5625 12C3.5625 7.34016 7.34016 3.5625 12 3.5625ZM11.2969 4.96875C11.1104 4.96875 10.9316 5.04283 10.7997 5.17469C10.6678 5.30655 10.5938 5.48539 10.5938 5.67188V7.07812C10.5938 7.26461 10.6678 7.44345 10.7997 7.57531C10.9316 7.70717 11.1104 7.78125 11.2969 7.78125H12.7031C12.8896 7.78125 13.0684 7.70717 13.2003 7.57531C13.3322 7.44345 13.4062 7.26461 13.4062 7.07812V5.67188C13.4062 5.48539 13.3322 5.30655 13.2003 5.17469C13.0684 5.04283 12.8896 4.96875 12.7031 4.96875H11.2969ZM12.082 9.18891C11.706 9.17793 11.3315 9.24252 10.9809 9.37886C10.6302 9.51519 10.3105 9.72049 10.0406 9.9826C9.77066 10.2447 9.5561 10.5583 9.40957 10.9048C9.26304 11.2514 9.18753 11.6238 9.1875 12C9.1875 12.7459 9.48382 13.4613 10.0113 13.9887C10.5387 14.5162 11.2541 14.8125 12 14.8125C12.7459 14.8125 13.4613 14.5162 13.9887 13.9887C14.5162 13.4613 14.8125 12.7459 14.8125 12C14.8124 11.2683 14.5273 10.5655 14.0175 10.0406C13.5077 9.51577 12.8134 9.21025 12.082 9.18891ZM5.67188 10.5938C5.48539 10.5938 5.30655 10.6678 5.17469 10.7997C5.04283 10.9316 4.96875 11.1104 4.96875 11.2969V12.7031C4.96875 12.8896 5.04283 13.0684 5.17469 13.2003C5.30655 13.3322 5.48539 13.4062 5.67188 13.4062H7.07812C7.26461 13.4062 7.44345 13.3322 7.57531 13.2003C7.70717 13.0684 7.78125 12.8896 7.78125 12.7031V11.2969C7.78125 11.1104 7.70717 10.9316 7.57531 10.7997C7.44345 10.6678 7.26461 10.5938 7.07812 10.5938H5.67188ZM16.9219 10.5938C16.7354 10.5938 16.5566 10.6678 16.4247 10.7997C16.2928 10.9316 16.2188 11.1104 16.2188 11.2969V12.7031C16.2188 12.8896 16.2928 13.0684 16.4247 13.2003C16.5566 13.3322 16.7354 13.4062 16.9219 13.4062H18.3281C18.5146 13.4062 18.6934 13.3322 18.8253 13.2003C18.9572 13.0684 19.0312 12.8896 19.0312 12.7031V11.2969C19.0312 11.1104 18.9572 10.9316 18.8253 10.7997C18.6934 10.6678 18.5146 10.5938 18.3281 10.5938H16.9219ZM11.2969 16.2188C11.1104 16.2188 10.9316 16.2928 10.7997 16.4247C10.6678 16.5566 10.5938 16.7354 10.5938 16.9219V18.3281C10.5938 18.5146 10.6678 18.6934 10.7997 18.8253C10.9316 18.9572 11.1104 19.0312 11.2969 19.0312H12.7031C12.8896 19.0312 13.0684 18.9572 13.2003 18.8253C13.3322 18.6934 13.4062 18.5146 13.4062 18.3281V16.9219C13.4062 16.7354 13.3322 16.5566 13.2003 16.4247C13.0684 16.2928 12.8896 16.2188 12.7031 16.2188H11.2969Z" fill="#4B5563"/>
</svg>
