<svg width="15" height="23" viewBox="0 0 15 23" fill="none" xmlns="http://www.w3.org/2000/svg">
<path d="M14.256 15.248C14.256 16.544 13.776 17.648 12.816 18.56C11.872 19.456 10.496 20 8.688 20.192V22.88H6.72V20.216C5.536 20.136 4.416 19.92 3.36 19.568C2.304 19.216 1.464 18.768 0.84 18.224L1.92 15.8C2.512 16.28 3.232 16.688 4.08 17.024C4.928 17.344 5.808 17.544 6.72 17.624V12.824C5.584 12.552 4.632 12.256 3.864 11.936C3.112 11.6 2.48 11.12 1.968 10.496C1.456 9.856 1.2 9.016 1.2 7.976C1.2 6.68 1.672 5.576 2.616 4.664C3.56 3.752 4.928 3.208 6.72 3.032V0.319999H8.688V2.984C9.584 3.032 10.456 3.184 11.304 3.44C12.168 3.696 12.92 4.032 13.56 4.448L12.576 6.872C11.36 6.168 10.064 5.736 8.688 5.576V10.424C9.84 10.696 10.792 10.992 11.544 11.312C12.312 11.632 12.952 12.112 13.464 12.752C13.992 13.376 14.256 14.208 14.256 15.248ZM4.296 7.832C4.296 8.36 4.504 8.784 4.92 9.104C5.336 9.424 5.936 9.696 6.72 9.92V5.648C5.904 5.776 5.296 6.032 4.896 6.416C4.496 6.8 4.296 7.272 4.296 7.832ZM8.688 17.576C9.536 17.448 10.16 17.2 10.56 16.832C10.976 16.464 11.184 16.008 11.184 15.464C11.184 14.92 10.968 14.488 10.536 14.168C10.104 13.832 9.488 13.552 8.688 13.328V17.576Z" fill="#111827"/>
</svg>
