<svg width="17" height="16" viewBox="0 0 17 16" fill="none" xmlns="http://www.w3.org/2000/svg">
<path fill-rule="evenodd" clip-rule="evenodd" d="M4.5 0C3.94772 0 3.5 0.44772 3.5 1V2H2.5C1.39543 2 0.5 2.89543 0.5 4V14C0.5 15.1046 1.39543 16 2.5 16H14.5C15.6046 16 16.5 15.1046 16.5 14V4C16.5 2.89543 15.6046 2 14.5 2H13.5V1C13.5 0.44772 13.0523 0 12.5 0C11.9477 0 11.5 0.44772 11.5 1V2H5.5V1C5.5 0.44772 5.05228 0 4.5 0ZM4.5 5C3.94772 5 3.5 5.44772 3.5 6C3.5 6.55228 3.94772 7 4.5 7H12.5C13.0523 7 13.5 6.55228 13.5 6C13.5 5.44772 13.0523 5 12.5 5H4.5Z" fill="#9CA3AF"/>
</svg>
