<svg width="22" height="19" viewBox="0 0 22 19" fill="none" xmlns="http://www.w3.org/2000/svg">
<path d="M14 -1.41854e-08C14.7023 -8.35763e-05 15.3922 0.184732 16.0004 0.535864C16.6086 0.886996 17.1137 1.39207 17.4647 2.00029C17.8158 2.60852 18.0006 3.29846 18.0005 4.00075C18.0003 4.70303 17.8153 5.39291 17.464 6.001L22 6V8H20V18C20 18.2652 19.8946 18.5196 19.7071 18.7071C19.5196 18.8946 19.2652 19 19 19H3C2.73478 19 2.48043 18.8946 2.29289 18.7071C2.10536 18.5196 2 18.2652 2 18V8H0V6L4.536 6.001C4.03986 5.14189 3.88069 4.12906 4.08938 3.15917C4.29808 2.18929 4.85975 1.33157 5.66533 0.752552C6.47092 0.173537 7.46293 -0.0854503 8.44875 0.0258787C9.43456 0.137208 10.3438 0.610908 11 1.355C11.3746 0.928381 11.8361 0.586773 12.3535 0.353078C12.8709 0.119382 13.4323 -0.00100045 14 -1.41854e-08ZM12 8H10V18H12V8ZM8 2C7.48102 1.99768 6.98145 2.19719 6.60685 2.55638C6.23224 2.91557 6.01193 3.40632 5.99246 3.92494C5.97299 4.44356 6.15588 4.94945 6.50249 5.33572C6.84911 5.72199 7.3323 5.9584 7.85 5.995L8 6H10V4C10 3.52206 9.82889 3.05992 9.51759 2.69726C9.2063 2.3346 8.77542 2.09541 8.303 2.023L8.149 2.005L8 2ZM14 2C13.4954 1.99984 13.0094 2.19041 12.6395 2.5335C12.2695 2.87659 12.0428 3.34684 12.005 3.85L12 4V6H14C14.5046 6.00016 14.9906 5.80959 15.3605 5.4665C15.7305 5.12341 15.9572 4.65316 15.995 4.15L16 4C16 3.46957 15.7893 2.96086 15.4142 2.58579C15.0391 2.21071 14.5304 2 14 2Z" fill="white"/>
</svg>
