<svg width="24" height="24" viewBox="0 0 24 24" fill="none" xmlns="http://www.w3.org/2000/svg">
<path d="M2.88 0.758967C2.99739 0.739845 3.11764 0.748915 3.23083 0.785429C3.34403 0.821943 3.44691 0.884853 3.531 0.968967L4.5 1.93947L5.469 0.968967C5.53867 0.899123 5.62143 0.843708 5.71255 0.805899C5.80367 0.768089 5.90135 0.748627 6 0.748627C6.09865 0.748627 6.19633 0.768089 6.28745 0.805899C6.37857 0.843708 6.46133 0.899123 6.531 0.968967L7.5 1.93947L8.469 0.968967C8.53867 0.899123 8.62143 0.843708 8.71255 0.805899C8.80367 0.768089 8.90135 0.748627 9 0.748627C9.09865 0.748627 9.19633 0.768089 9.28745 0.805899C9.37857 0.843708 9.46133 0.899123 9.531 0.968967L10.5 1.93947L11.469 0.968967C11.5387 0.899123 11.6214 0.843708 11.7125 0.805899C11.8037 0.768089 11.9013 0.748627 12 0.748627C12.0987 0.748627 12.1963 0.768089 12.2874 0.805899C12.3786 0.843708 12.4613 0.899123 12.531 0.968967L13.5 1.93947L14.469 0.968967C14.5387 0.899123 14.6214 0.843708 14.7126 0.805899C14.8037 0.768089 14.9013 0.748627 15 0.748627C15.0987 0.748627 15.1963 0.768089 15.2874 0.805899C15.3786 0.843708 15.4613 0.899123 15.531 0.968967L16.5 1.93947L17.469 0.968967C17.5387 0.899123 17.6214 0.843708 17.7126 0.805899C17.8037 0.768089 17.9013 0.748627 18 0.748627C18.0987 0.748627 18.1963 0.768089 18.2874 0.805899C18.3786 0.843708 18.4613 0.899123 18.531 0.968967L19.5 1.93947L20.469 0.968967C20.553 0.884866 20.6559 0.821948 20.769 0.785403C20.8821 0.748857 21.0023 0.739731 21.1197 0.758778C21.237 0.777824 21.3482 0.824497 21.444 0.894947C21.5397 0.965397 21.6174 1.05761 21.6705 1.16397L22.4205 2.66397C22.4728 2.76826 22.5 2.88331 22.5 2.99997V21C22.5 21.1166 22.4728 21.2317 22.4205 21.336L21.6705 22.836C21.6173 22.9421 21.5397 23.034 21.4441 23.1043C21.3484 23.1745 21.2375 23.2211 21.1203 23.2401C21.0032 23.2592 20.8832 23.2501 20.7702 23.2138C20.6573 23.1774 20.5545 23.1148 20.4705 23.031L19.5 22.0605L18.531 23.031C18.4613 23.1008 18.3786 23.1562 18.2874 23.194C18.1963 23.2318 18.0987 23.2513 18 23.2513C17.9013 23.2513 17.8037 23.2318 17.7126 23.194C17.6214 23.1562 17.5387 23.1008 17.469 23.031L16.5 22.0605L15.531 23.031C15.4613 23.1008 15.3786 23.1562 15.2874 23.194C15.1963 23.2318 15.0987 23.2513 15 23.2513C14.9013 23.2513 14.8037 23.2318 14.7126 23.194C14.6214 23.1562 14.5387 23.1008 14.469 23.031L13.5 22.0605L12.531 23.031C12.4613 23.1008 12.3786 23.1562 12.2874 23.194C12.1963 23.2318 12.0987 23.2513 12 23.2513C11.9013 23.2513 11.8037 23.2318 11.7125 23.194C11.6214 23.1562 11.5387 23.1008 11.469 23.031L10.5 22.0605L9.531 23.031C9.46133 23.1008 9.37857 23.1562 9.28745 23.194C9.19633 23.2318 9.09865 23.2513 9 23.2513C8.90135 23.2513 8.80367 23.2318 8.71255 23.194C8.62143 23.1562 8.53867 23.1008 8.469 23.031L7.5 22.0605L6.531 23.031C6.46133 23.1008 6.37857 23.1562 6.28745 23.194C6.19633 23.2318 6.09865 23.2513 6 23.2513C5.90135 23.2513 5.80367 23.2318 5.71255 23.194C5.62143 23.1562 5.53867 23.1008 5.469 23.031L4.5 22.0605L3.531 23.031C3.44696 23.1151 3.34414 23.178 3.231 23.2145C3.11787 23.2511 2.99767 23.2602 2.88031 23.2412C2.76296 23.2221 2.65181 23.1754 2.55604 23.105C2.46027 23.0345 2.38262 22.9423 2.3295 22.836L1.5795 21.336C1.52723 21.2317 1.50001 21.1166 1.5 21V2.99997C1.50001 2.88331 1.52723 2.76826 1.5795 2.66397L2.3295 1.16397C2.38262 1.05768 2.46023 0.965533 2.55594 0.895119C2.65165 0.824706 2.76272 0.77804 2.88 0.758967ZM3.2055 2.76597L3 3.17697V20.823L3.2055 21.234L3.9705 20.469C4.11115 20.3284 4.30188 20.2494 4.50075 20.2494C4.69962 20.2494 4.89035 20.3284 5.031 20.469L6 21.4395L6.969 20.4705C7.03867 20.4006 7.12143 20.3452 7.21255 20.3074C7.30367 20.2696 7.40135 20.2501 7.5 20.2501C7.59865 20.2501 7.69633 20.2696 7.78745 20.3074C7.87857 20.3452 7.96133 20.4006 8.031 20.4705L9 21.4395L9.969 20.4705C10.0387 20.4006 10.1214 20.3452 10.2125 20.3074C10.3037 20.2696 10.4013 20.2501 10.5 20.2501C10.5987 20.2501 10.6963 20.2696 10.7875 20.3074C10.8786 20.3452 10.9613 20.4006 11.031 20.4705L12 21.4395L12.969 20.4705C13.0387 20.4006 13.1214 20.3452 13.2126 20.3074C13.3037 20.2696 13.4013 20.2501 13.5 20.2501C13.5987 20.2501 13.6963 20.2696 13.7874 20.3074C13.8786 20.3452 13.9613 20.4006 14.031 20.4705L15 21.4395L15.969 20.4705C16.0387 20.4006 16.1214 20.3452 16.2126 20.3074C16.3037 20.2696 16.4013 20.2501 16.5 20.2501C16.5987 20.2501 16.6963 20.2696 16.7874 20.3074C16.8786 20.3452 16.9613 20.4006 17.031 20.4705L18 21.4395L18.969 20.4705C19.0387 20.4006 19.1214 20.3452 19.2126 20.3074C19.3037 20.2696 19.4013 20.2501 19.5 20.2501C19.5987 20.2501 19.6963 20.2696 19.7874 20.3074C19.8786 20.3452 19.9613 20.4006 20.031 20.4705L20.7945 21.234L21 20.823V3.17697L20.7945 2.76597L20.0295 3.53097C19.8889 3.67157 19.6981 3.75056 19.4993 3.75056C19.3004 3.75056 19.1096 3.67157 18.969 3.53097L18 2.56047L17.031 3.53097C16.9613 3.60081 16.8786 3.65623 16.7874 3.69404C16.6963 3.73185 16.5987 3.75131 16.5 3.75131C16.4013 3.75131 16.3037 3.73185 16.2126 3.69404C16.1214 3.65623 16.0387 3.60081 15.969 3.53097L15 2.56047L14.031 3.53097C13.9613 3.60081 13.8786 3.65623 13.7874 3.69404C13.6963 3.73185 13.5987 3.75131 13.5 3.75131C13.4013 3.75131 13.3037 3.73185 13.2126 3.69404C13.1214 3.65623 13.0387 3.60081 12.969 3.53097L12 2.56047L11.031 3.53097C10.9613 3.60081 10.8786 3.65623 10.7875 3.69404C10.6963 3.73185 10.5987 3.75131 10.5 3.75131C10.4013 3.75131 10.3037 3.73185 10.2125 3.69404C10.1214 3.65623 10.0387 3.60081 9.969 3.53097L9 2.56047L8.031 3.53097C7.96133 3.60081 7.87857 3.65623 7.78745 3.69404C7.69633 3.73185 7.59865 3.75131 7.5 3.75131C7.40135 3.75131 7.30367 3.73185 7.21255 3.69404C7.12143 3.65623 7.03867 3.60081 6.969 3.53097L6 2.56047L5.031 3.53097C4.96133 3.60081 4.87857 3.65623 4.78745 3.69404C4.69633 3.73185 4.59865 3.75131 4.5 3.75131C4.40135 3.75131 4.30367 3.73185 4.21255 3.69404C4.12143 3.65623 4.03867 3.60081 3.969 3.53097L3.2055 2.76597Z" fill="#4B5563"/>
<path d="M4.5 6.75C4.5 6.55109 4.57902 6.36032 4.71967 6.21967C4.86032 6.07902 5.05109 6 5.25 6H14.25C14.4489 6 14.6397 6.07902 14.7803 6.21967C14.921 6.36032 15 6.55109 15 6.75C15 6.94891 14.921 7.13968 14.7803 7.28033C14.6397 7.42098 14.4489 7.5 14.25 7.5H5.25C5.05109 7.5 4.86032 7.42098 4.71967 7.28033C4.57902 7.13968 4.5 6.94891 4.5 6.75ZM4.5 9.75C4.5 9.55109 4.57902 9.36032 4.71967 9.21967C4.86032 9.07902 5.05109 9 5.25 9H14.25C14.4489 9 14.6397 9.07902 14.7803 9.21967C14.921 9.36032 15 9.55109 15 9.75C15 9.94891 14.921 10.1397 14.7803 10.2803C14.6397 10.421 14.4489 10.5 14.25 10.5H5.25C5.05109 10.5 4.86032 10.421 4.71967 10.2803C4.57902 10.1397 4.5 9.94891 4.5 9.75ZM4.5 12.75C4.5 12.5511 4.57902 12.3603 4.71967 12.2197C4.86032 12.079 5.05109 12 5.25 12H14.25C14.4489 12 14.6397 12.079 14.7803 12.2197C14.921 12.3603 15 12.5511 15 12.75C15 12.9489 14.921 13.1397 14.7803 13.2803C14.6397 13.421 14.4489 13.5 14.25 13.5H5.25C5.05109 13.5 4.86032 13.421 4.71967 13.2803C4.57902 13.1397 4.5 12.9489 4.5 12.75ZM4.5 15.75C4.5 15.5511 4.57902 15.3603 4.71967 15.2197C4.86032 15.079 5.05109 15 5.25 15H14.25C14.4489 15 14.6397 15.079 14.7803 15.2197C14.921 15.3603 15 15.5511 15 15.75C15 15.9489 14.921 16.1397 14.7803 16.2803C14.6397 16.421 14.4489 16.5 14.25 16.5H5.25C5.05109 16.5 4.86032 16.421 4.71967 16.2803C4.57902 16.1397 4.5 15.9489 4.5 15.75ZM16.5 6.75C16.5 6.55109 16.579 6.36032 16.7197 6.21967C16.8603 6.07902 17.0511 6 17.25 6H18.75C18.9489 6 19.1397 6.07902 19.2803 6.21967C19.421 6.36032 19.5 6.55109 19.5 6.75C19.5 6.94891 19.421 7.13968 19.2803 7.28033C19.1397 7.42098 18.9489 7.5 18.75 7.5H17.25C17.0511 7.5 16.8603 7.42098 16.7197 7.28033C16.579 7.13968 16.5 6.94891 16.5 6.75ZM16.5 9.75C16.5 9.55109 16.579 9.36032 16.7197 9.21967C16.8603 9.07902 17.0511 9 17.25 9H18.75C18.9489 9 19.1397 9.07902 19.2803 9.21967C19.421 9.36032 19.5 9.55109 19.5 9.75C19.5 9.94891 19.421 10.1397 19.2803 10.2803C19.1397 10.421 18.9489 10.5 18.75 10.5H17.25C17.0511 10.5 16.8603 10.421 16.7197 10.2803C16.579 10.1397 16.5 9.94891 16.5 9.75ZM16.5 12.75C16.5 12.5511 16.579 12.3603 16.7197 12.2197C16.8603 12.079 17.0511 12 17.25 12H18.75C18.9489 12 19.1397 12.079 19.2803 12.2197C19.421 12.3603 19.5 12.5511 19.5 12.75C19.5 12.9489 19.421 13.1397 19.2803 13.2803C19.1397 13.421 18.9489 13.5 18.75 13.5H17.25C17.0511 13.5 16.8603 13.421 16.7197 13.2803C16.579 13.1397 16.5 12.9489 16.5 12.75ZM16.5 15.75C16.5 15.5511 16.579 15.3603 16.7197 15.2197C16.8603 15.079 17.0511 15 17.25 15H18.75C18.9489 15 19.1397 15.079 19.2803 15.2197C19.421 15.3603 19.5 15.5511 19.5 15.75C19.5 15.9489 19.421 16.1397 19.2803 16.2803C19.1397 16.421 18.9489 16.5 18.75 16.5H17.25C17.0511 16.5 16.8603 16.421 16.7197 16.2803C16.579 16.1397 16.5 15.9489 16.5 15.75Z" fill="#4B5563"/>
</svg>
